<svg id="Layer_1" xmlns="http://www.w3.org/2000/svg" viewBox="0 0 211.9 38.6"><style>.st0{fill:#3fae2a}.st1{fill:none}.st2{fill:#263746}.st3{fill:#fff}</style><path class="st0" d="M55.7 2.6c-.1-.2-.2-.3-.5-.3h-.3c-.3 0-.4.1-.5.3l-8.9 19.3c-.2.4.1.7.5.7h2.5c.5 0 .7-.3.8-.6l1.4-3.1h8.6l1.4 3.1c.2.4.4.6.8.6H64c.4 0 .7-.4.5-.7L55.7 2.6zm-3.6 13.2l2.8-6.3h.1l2.9 6.3h-5.8zM83 2.6h-2.6c-.3 0-.5.3-.5.5V15l-12-12.7h-.7c-.3 0-.5.2-.5.5v19.3c0 .3.3.5.5.5h2.6c.3 0 .5-.3.5-.5V9.8l12 13.2h.7c.3 0 .5-.2.5-.5V3.1c.1-.2-.2-.5-.5-.5zM95.9 2.6c-.1-.2-.2-.3-.5-.3h-.3c-.3 0-.4.1-.5.3l-8.9 19.3c-.2.4.1.7.5.7h2.5c.5 0 .7-.3.8-.6l1.4-3h8.6l1.4 3.1c.2.4.4.6.8.6h2.5c.4 0 .7-.4.5-.7L95.9 2.6zm-3.6 13.2l2.8-6.3h.1l2.9 6.3h-5.8zM120.4 17.6c-.2-.2-.5-.2-.7 0-1.2 1-2.7 1.6-4.4 1.6-3.7 0-6.4-3-6.4-6.6s2.7-6.7 6.4-6.7c1.6 0 3.2.6 4.4 1.7.2.2.5.2.7 0l1.7-1.8c.2-.2.2-.6 0-.8-1.9-1.7-4-2.7-6.9-2.7-5.7 0-10.3 4.6-10.3 10.3s4.6 10.3 10.3 10.3c2.6 0 5-.9 7-2.8.2-.2.3-.6 0-.8l-1.8-1.7zM133.9 2.3c-5.7 0-10.3 4.6-10.3 10.3s4.6 10.3 10.3 10.3c5.7 0 10.3-4.6 10.3-10.3s-4.5-10.3-10.3-10.3zm0 16.9c-3.6 0-6.6-3-6.6-6.6s3-6.6 6.6-6.6 6.6 3 6.6 6.6c0 3.7-3 6.6-6.6 6.6zM163.8 2.6h-2.6c-.3 0-.5.3-.5.5V15L148.6 2.3h-.7c-.3 0-.5.2-.5.5v19.3c0 .3.3.5.5.5h2.6c.3 0 .5-.3.5-.5V9.8L163 23h.7c.3 0 .5-.2.5-.5V3.1c.1-.2-.1-.5-.4-.5zM175.3 2.6h-6.8c-.3 0-.5.3-.5.5v19c0 .3.2.5.5.5h6.8c5.5 0 10.1-4.5 10.1-10.1-.1-5.4-4.6-9.9-10.1-9.9zm-.4 16.6h-3.3V6.1h3.3c3.7 0 6.4 2.8 6.4 6.5.1 3.8-2.7 6.6-6.4 6.6zM204.5 21.9l-8.8-19.3c-.1-.2-.2-.3-.5-.3h-.3c-.3 0-.4.1-.5.3l-8.9 19.3c-.2.4.1.7.5.7h2.5c.5 0 .7-.3.8-.6l1.4-3.1h8.6l1.4 3.1c.2.4.4.6.8.6h2.5c.4.1.7-.3.5-.7zm-12.4-6.1l2.8-6.3h.1l2.9 6.3h-5.8z"/><path class="st1" d="M208.8 26c0-.1-.1-.2-.2-.2h-.4v.5h.4c.1-.1.2-.2.2-.3z"/><path class="st1" d="M208.4 27.6c.8 0 1.4-.6 1.4-1.4s-.6-1.4-1.4-1.4c-.8 0-1.4.6-1.4 1.4s.7 1.4 1.4 1.4zm-.6-2.1s0-.1 0 0l.8-.1c.3 0 .6.2.6.6 0 .3-.2.5-.4.5.1.2.2.4.2.5s0 .1-.1.1h-.2s-.1 0-.1-.1l-.2-.6h-.3v.6s0 .1-.1.1h-.1c-.1 0-.1 0-.1-.1v-1.5z"/><path class="st0" d="M207.9 27.1h.2c.1 0 .1 0 .1-.1v-.5h.3l.2.6s0 .1.1.1h.2c.1 0 .1-.1.1-.1-.1-.2-.2-.3-.2-.5.1-.1.4-.2.4-.5 0-.4-.3-.6-.6-.6h-.8c-.1 0-.1 0-.1.1l.1 1.5c-.1 0-.1 0 0 0zm.2-1.4h.4c.1 0 .2.1.2.2s-.1.2-.2.2h-.4v-.4z"/><path class="st0" d="M208.4 28c.9 0 1.7-.8 1.7-1.7s-.8-1.7-1.7-1.7-1.7.8-1.7 1.7.8 1.7 1.7 1.7zm0-3.1c.8 0 1.4.6 1.4 1.4s-.6 1.4-1.4 1.4c-.8 0-1.4-.6-1.4-1.4s.7-1.4 1.4-1.4z"/><g><path class="st2" d="M48 28.1c1 0 1.8.2 2.3.6s.8 1 .8 1.7c0 .4-.1.8-.2 1.1-.1.3-.4.5-.6.7-.3.2-.6.3-1 .4-.4.1-.9.1-1.4.1h-.8v2.7h-1v-7.1c.3-.1.6-.1 1-.1.3-.1.6-.1.9-.1zm0 .9h-1v2.8h.8c.3 0 .7 0 .9-.1.3 0 .5-.1.7-.2s.3-.3.4-.4c.1-.2.2-.4.2-.7 0-.3-.1-.5-.2-.7-.1-.2-.3-.3-.4-.4-.2-.1-.4-.2-.6-.2-.2-.1-.5-.1-.8-.1zM57.2 32.7c0 .4-.1.8-.2 1.2-.1.3-.3.6-.5.9-.2.2-.5.4-.8.6-.3.1-.7.2-1 .2s-.7-.1-1-.2c-.3-.1-.6-.3-.8-.6-.2-.2-.4-.5-.5-.9-.1-.3-.2-.7-.2-1.2 0-.4.1-.8.2-1.2.1-.3.3-.6.5-.9.2-.2.5-.4.8-.6.3-.1.7-.2 1-.2s.7.1 1 .2.6.3.8.6c.2.2.4.5.5.9.1.4.2.8.2 1.2zm-1 0c0-.6-.1-1.1-.4-1.4-.3-.4-.6-.5-1.1-.5s-.8.2-1.1.5c-.3.4-.4.8-.4 1.4 0 .6.1 1.1.4 1.4.3.4.6.5 1.1.5s.8-.2 1.1-.5c.2-.3.4-.8.4-1.4zM63.1 35.4c-.2-.5-.4-1.1-.6-1.7-.2-.6-.4-1.3-.6-2-.2.7-.4 1.4-.6 2-.2.6-.4 1.2-.6 1.7h-.8c-.3-.7-.6-1.5-.9-2.4-.3-.9-.6-1.9-.9-3h1c.1.3.2.7.2 1.1.1.4.2.8.3 1.1.1.4.2.7.3 1.1.1.4.2.7.3.9.1-.3.2-.7.3-1 .1-.4.2-.7.3-1.1.1-.4.2-.7.3-1.1s.2-.7.2-1h.8c.1.3.1.6.2 1s.2.7.3 1.1c.1.4.2.7.3 1.1s.2.7.3 1l.3-.9c.1-.3.2-.7.3-1.1.1-.4.2-.8.3-1.1.1-.4.2-.7.2-1.1h1c-.3 1.1-.6 2-.9 3-.3.9-.6 1.7-.9 2.4h-.4zM66.5 32.7c0-.5.1-.9.2-1.3s.3-.7.6-.9c.2-.2.5-.4.8-.5s.6-.2.9-.2c.7 0 1.3.2 1.7.7.4.5.6 1.1.6 2.1v.4h-3.7c0 .6.2 1 .5 1.3s.7.4 1.3.4c.3 0 .6 0 .9-.1.2-.1.4-.1.5-.2l.1.8c-.1.1-.3.1-.6.2s-.6.1-1 .1c-.5 0-.9-.1-1.2-.2-.3-.1-.6-.3-.8-.6-.2-.2-.4-.5-.5-.9-.2-.3-.3-.7-.3-1.1zm3.7-.5c0-.4-.1-.8-.3-1.1-.2-.3-.5-.4-.9-.4-.2 0-.4 0-.6.1s-.3.2-.4.3c-.1.1-.2.3-.3.5-.1.2-.1.4-.1.6h2.6zM74.7 29.9h.6c.1 0 .2 0 .3.1h.2l-.2.8c-.1 0-.2-.1-.4-.1s-.4-.1-.7-.1c-.2 0-.4 0-.5.1-.2 0-.3.1-.3.1v4.5h-1v-5.2c.2-.1.5-.2.9-.2h1.1zM76.5 32.7c0-.5.1-.9.2-1.3s.3-.7.6-.9c.2-.2.5-.4.8-.5s.6-.2.9-.2c.7 0 1.3.2 1.7.7.4.5.6 1.1.6 2.1v.4h-3.7c0 .6.2 1 .5 1.3s.7.4 1.3.4c.3 0 .6 0 .9-.1.2-.1.4-.1.5-.2l.1.8c-.1.1-.3.1-.6.2s-.6.1-1 .1c-.5 0-.9-.1-1.2-.2-.3-.1-.6-.3-.8-.6-.2-.2-.4-.5-.5-.9-.2-.3-.3-.7-.3-1.1zm3.7-.5c0-.4-.1-.8-.3-1.1-.2-.3-.5-.4-.9-.4-.2 0-.4 0-.6.1s-.3.2-.4.3c-.1.1-.2.3-.3.5-.1.2-.1.4-.1.6h2.6zM86.2 27.5l1-.2v7.9c-.2.1-.5.1-.9.2-.3.1-.7.1-1.2.1-.4 0-.8-.1-1.1-.2-.3-.1-.6-.3-.9-.6-.2-.2-.4-.5-.5-.9-.1-.3-.2-.7-.2-1.2 0-.4.1-.8.2-1.1.1-.3.3-.6.5-.9.2-.2.5-.4.8-.6.3-.1.6-.2 1-.2.3 0 .6 0 .8.1.2.1.4.2.5.2v-2.6zm0 3.6c-.1-.1-.3-.2-.5-.3-.2-.1-.5-.1-.7-.1-.3 0-.5 0-.7.2-.2.1-.4.2-.5.4l-.3.6c-.1.2-.1.5-.1.8 0 .6.2 1.1.5 1.5.3.3.7.5 1.2.5h.7c.2 0 .3-.1.4-.1v-3.5zM92.4 30.2c.1-.1.3-.2.5-.2.2-.1.5-.1.8-.1.4 0 .7.1 1 .2s.6.3.8.6c.2.2.4.5.5.9.1.3.2.7.2 1.1s-.1.8-.2 1.2c-.1.3-.3.6-.5.9-.2.2-.5.4-.9.6-.3.1-.7.2-1.1.2s-.8 0-1.2-.1c-.3-.1-.6-.1-.9-.2v-7.7l1-.2v2.8zm0 4.3c.1 0 .2.1.4.1h.7c.5 0 .9-.2 1.2-.5.3-.3.5-.8.5-1.5 0-.3 0-.5-.1-.8-.1-.2-.1-.5-.3-.6-.1-.2-.3-.3-.5-.4s-.4-.2-.7-.2c-.3 0-.5 0-.7.1s-.4.2-.5.3v3.5zM97 36.4c.1 0 .2.1.3.1h.4c.4 0 .7-.1.9-.3.2-.2.4-.4.6-.8-.4-.8-.8-1.7-1.2-2.6-.4-.9-.7-1.9-.9-2.8h1c.1.3.2.6.3 1 .1.4.2.7.4 1.1.1.4.3.8.4 1.1.2.4.3.7.5 1.1.3-.7.5-1.4.7-2.2.2-.7.4-1.4.6-2.2h1c-.2 1-.5 2-.8 2.9-.3.9-.6 1.8-1 2.6-.1.3-.3.6-.4.8s-.3.4-.5.6c-.2.1-.4.3-.6.3-.2.1-.5.1-.8.1h-.4c-.1 0-.2 0-.2-.1s-.1 0-.1-.1l-.2-.6zM108.7 35.5c-.5 0-1-.1-1.5-.2-.4-.2-.8-.4-1.1-.7-.3-.3-.5-.7-.7-1.2s-.2-1-.2-1.6c0-.6.1-1.1.3-1.6.2-.5.4-.9.8-1.2.3-.3.7-.6 1.1-.7.4-.2.9-.2 1.4-.2.3 0 .6 0 .8.1.2 0 .5.1.6.2.2.1.3.1.4.2s.2.1.2.1l-.4 1.1c-.2-.1-.4-.2-.7-.3-.3-.1-.6-.1-1-.1-.3 0-.6.1-.9.2s-.5.3-.7.5-.4.5-.5.8-.2.7-.2 1.1c0 .4 0 .7.1 1 .1.3.2.6.4.8.2.2.4.4.7.5.3.1.6.2 1 .2.5 0 .8 0 1.1-.1.3-.1.5-.2.7-.3l.5.9c-.1.1-.2.1-.3.2-.1.1-.3.1-.5.2s-.4.1-.7.1h-.7zM117.1 32.7c0 .4-.1.8-.2 1.2s-.3.7-.5.9-.5.4-.8.6c-.3.1-.7.2-1.1.2s-.7-.1-1.1-.2c-.3-.1-.6-.3-.8-.6-.2-.2-.4-.6-.5-.9-.1-.4-.2-.7-.2-1.2 0-.4.1-.8.2-1.2.1-.3.3-.6.5-.9.2-.2.5-.4.8-.6.3-.1.7-.2 1-.2.4 0 .7.1 1.1.2.3.1.6.3.8.6.2.2.4.5.5.9s.3.7.3 1.2zm-1.3 0c0-.5-.1-1-.3-1.3-.2-.3-.6-.5-1-.5s-.7.2-1 .5c-.2.3-.3.7-.3 1.3 0 .5.1 1 .3 1.3.2.3.6.5 1 .5s.7-.2 1-.5c.1-.4.3-.8.3-1.3zM118.5 30.1c.2-.1.6-.1.9-.2.4-.1.8-.1 1.3-.1.4 0 .8.1 1.1.2.3.1.5.3.7.5s.3.5.4.8.1.6.1 1v3.1h-1.3v-2.9c0-.3 0-.5-.1-.7 0-.2-.1-.4-.2-.5s-.2-.2-.4-.3c-.1-.1-.3-.1-.5-.1h-.5c-.2 0-.3 0-.4.1v4.4h-1.3v-5.3h.2zM124.6 28.5l1.3-.2v1.6h1.9v1h-1.9v2.2c0 .4.1.7.2.9s.4.3.7.3c.2 0 .4 0 .6-.1.2 0 .3-.1.4-.1l.2 1c-.1.1-.3.1-.6.2s-.5.1-.8.1c-.4 0-.7-.1-1-.2-.3-.1-.5-.3-.6-.5-.2-.2-.3-.4-.3-.7-.1-.3-.1-.6-.1-1v-4.5zM130.5 28.4c0 .2-.1.4-.2.6-.2.1-.3.2-.5.2s-.4-.1-.6-.2-.2-.3-.2-.6c0-.2.1-.4.2-.6.2-.1.3-.2.6-.2.2 0 .4.1.5.2.1.1.2.3.2.6zm-.2 7H129V30h1.3v5.4zM132 30.1c.2-.1.6-.1.9-.2s.8-.1 1.3-.1c.4 0 .8.1 1.1.2s.5.3.7.5.3.5.4.8c.1.3.1.6.1 1v3.1h-1.3v-2.9c0-.3 0-.5-.1-.7 0-.2-.1-.4-.2-.5-.1-.1-.2-.2-.4-.3-.1-.1-.3-.1-.5-.1h-.5c-.2 0-.3 0-.4.1v4.4h-1.3v-5.3h.2zM142.7 35.2c-.2.1-.6.1-.9.2-.4.1-.8.1-1.3.1-.4 0-.8-.1-1.1-.2-.3-.1-.5-.3-.7-.5s-.3-.5-.4-.8c-.1-.3-.1-.6-.1-1v-3h1.3v2.8c0 .6.1 1 .3 1.2s.5.4.9.4h.5c.2 0 .3 0 .4-.1v-4.4h1.3v5.3h-.2zM148.8 35.2c-.2.1-.6.1-.9.2-.4.1-.8.1-1.3.1-.4 0-.8-.1-1.1-.2-.3-.1-.5-.3-.7-.5s-.3-.5-.4-.8c-.1-.3-.1-.6-.1-1v-3h1.3v2.8c0 .6.1 1 .3 1.2s.5.4.9.4h.5c.2 0 .3 0 .4-.1v-4.4h1.3v5.3h-.2zM153.6 32.5c0-.6-.1-1-.2-1.2-.1-.3-.4-.4-.8-.4h-.5c-.2 0-.3 0-.4.1v4.4h-1.3v-5.3c.2-.1.6-.1 1-.2s.8-.1 1.2-.1.7 0 .9.1.4.2.6.4c.1-.1.2-.1.3-.2s.2-.1.4-.2c.1-.1.3-.1.5-.1s.3-.1.5-.1c.4 0 .8.1 1 .2.3.1.5.3.6.5.2.2.3.5.3.8.1.3.1.6.1 1v3.1h-1.3v-2.9c0-.6-.1-1-.2-1.2-.1-.3-.4-.4-.8-.4-.2 0-.4 0-.6.1-.2.1-.3.1-.4.2.1.2.1.4.1.6v3.6h-1.3v-2.8h.3zM166.5 35.4c-.1-.3-.2-.6-.3-.8l-.3-.9h-3l-.3.9c-.1.3-.2.6-.3.8h-1.4c.3-.8.5-1.5.8-2.1s.5-1.3.7-1.8c.2-.6.5-1.1.7-1.7.2-.5.5-1 .7-1.6h1.2c.2.5.5 1 .7 1.6.2.5.5 1.1.7 1.7s.5 1.2.7 1.8.5 1.4.8 2.1h-1.4zm-2.2-5.8c-.2.4-.3.8-.5 1.3s-.4 1.1-.6 1.7h2.4c-.2-.6-.4-1.2-.6-1.7-.3-.5-.5-1-.7-1.3zM168.8 30.1c.2-.1.6-.1.9-.2.4-.1.8-.1 1.3-.1.4 0 .8.1 1.1.2s.5.3.7.5.3.5.4.8.1.6.1 1v3.1H172v-2.9c0-.3 0-.5-.1-.7 0-.2-.1-.4-.2-.5-.1-.1-.2-.2-.4-.3-.1-.1-.3-.1-.5-.1h-.5c-.2 0-.3 0-.4.1v4.4h-1.3v-5.3h.2zM176.8 29.8c.4 0 .8.1 1 .2.3.1.5.2.7.4.2.2.3.4.4.7.1.3.1.6.1.9v3.3c-.2 0-.5.1-.9.2s-.8.1-1.3.1c-.3 0-.6 0-.9-.1-.3-.1-.5-.2-.7-.3s-.3-.3-.4-.5c-.1-.2-.2-.5-.2-.8s.1-.6.2-.8c.1-.2.3-.4.5-.5.2-.1.4-.2.7-.3.3-.1.6-.1.9-.1h.4c.2 0 .3 0 .5.1V32c0-.1 0-.3-.1-.4 0-.1-.1-.2-.2-.3-.1-.1-.2-.2-.3-.2-.1-.1-.3-.1-.5-.1-.3 0-.6 0-.8.1-.2 0-.4.1-.6.1l-.2-1c.2-.1.4-.1.7-.2s.7-.2 1-.2zm.1 4.7c.4 0 .7 0 .9-.1V33c-.1 0-.2 0-.3-.1h-.8c-.1 0-.3.1-.4.1-.1.1-.2.1-.3.2-.1.1-.1.2-.1.4 0 .3.1.5.3.6.1.2.4.3.7.3zM182.5 35.5c-.4 0-.7 0-.9-.1l-.6-.3c-.1-.1-.2-.3-.3-.5s-.1-.5-.1-.7v-6.3l1.3-.2V34c0 .1.1.2.1.3.1.1.1.1.3.2.1 0 .2.1.4.1l-.2.9zM188.3 29.9c-.6 2.1-1.2 3.9-1.9 5.6-.1.3-.3.6-.4.8-.1.2-.3.4-.5.6-.2.1-.4.3-.6.3-.2.1-.5.1-.8.1-.2 0-.4 0-.6-.1-.2 0-.3-.1-.4-.1l.2-1c.3.1.5.1.7.1.3 0 .6-.1.8-.2.2-.2.3-.4.5-.7-.4-.8-.8-1.6-1.1-2.5-.4-.9-.7-1.9-1-2.9h1.3l.3.9c.1.3.2.7.3 1 .1.3.2.7.4 1 .1.3.3.7.4 1 .2-.6.4-1.3.6-2 .2-.7.4-1.4.5-2h1.3v.1zM189.3 28.5l1.3-.2v1.6h1.9v1h-1.9v2.2c0 .4.1.7.2.9s.4.3.7.3c.2 0 .4 0 .6-.1.2 0 .3-.1.4-.1l.2 1c-.1.1-.3.1-.6.2-.2.1-.5.1-.8.1-.4 0-.7-.1-1-.2-.3-.1-.5-.3-.6-.5-.2-.2-.3-.4-.3-.7-.1-.3-.1-.6-.1-1v-4.5zM195.2 28.4c0 .2-.1.4-.2.6-.2.1-.3.2-.5.2s-.4-.1-.6-.2c-.2-.1-.2-.3-.2-.6 0-.2.1-.4.2-.6.2-.1.3-.2.6-.2.2 0 .4.1.5.2.1.1.2.3.2.6zm-.2 7h-1.3V30h1.3v5.4zM196.4 32.7c0-.4.1-.8.2-1.1.1-.3.3-.7.5-.9.2-.3.5-.5.8-.6s.7-.2 1.1-.2c.5 0 1 .1 1.5.3l-.3 1c-.1-.1-.3-.1-.5-.2-.2 0-.4-.1-.6-.1-.5 0-.9.2-1.1.5-.3.3-.4.7-.4 1.3 0 .5.1 1 .4 1.3.2.3.7.5 1.2.5.2 0 .4 0 .6-.1.2 0 .4-.1.5-.2l.2 1c-.1.1-.3.1-.6.2s-.6.1-.9.1c-.5 0-.9-.1-1.2-.2-.3-.1-.6-.3-.9-.6-.2-.3-.4-.6-.5-.9.1-.3 0-.7 0-1.1zM203.1 34.5c.3 0 .6 0 .7-.1.2-.1.2-.2.2-.4s-.1-.3-.2-.4l-.8-.4-.6-.3c-.2-.1-.4-.2-.5-.3-.1-.1-.2-.3-.3-.5-.1-.2-.1-.4-.1-.6 0-.5.2-.9.6-1.2.4-.3.9-.4 1.5-.4.3 0 .6 0 .9.1.3.1.5.1.7.2l-.2 1c-.1-.1-.3-.1-.5-.2s-.5-.1-.7-.1c-.3 0-.5 0-.6.1-.2.1-.2.2-.2.4v.2c0 .1.1.1.2.2s.2.1.3.2.3.1.5.2c.3.1.6.2.8.3s.4.2.5.4c.1.1.2.3.3.5s.1.4.1.6c0 .5-.2.9-.6 1.2-.4.3-.9.4-1.6.4-.5 0-.9 0-1.2-.1s-.5-.1-.6-.2l.2-1c.2.1.4.1.7.2s.2 0 .5 0z"/></g><g><path class="st0" d="M5.9 23.6c-.6 1.2-1.1 2.4-1.4 3.6 1.3.4 2.6.6 4 .7 0-1 .1-2.1.2-3.1-1-.3-2-.7-2.8-1.2z"/><path class="st3" d="M8.5 28.1h-.1c-1.3-.1-2.7-.4-4-.7h-.1v-.1c.4-1.3.9-2.5 1.5-3.7l.1-.1c.9.5 1.8.9 2.7 1.3h.1v.1c-.1 1-.2 2-.2 3v.2zm-3.9-.9c1.2.3 2.4.6 3.7.7 0-1 .1-1.9.2-2.8-.9-.4-1.7-.8-2.6-1.2-.5.9-1 2.1-1.3 3.3z"/><path class="st0" d="M11.2 10.1c-.7 0-1.5.1-2.3.2.1.8.2 1.5.4 2.3.6-.9 1.2-1.7 1.9-2.5zM4.9 28.5c1 1.5 2.3 2.9 3.7 4-.2-1.2-.2-2.3-.3-3.5-1.1-.1-2.2-.3-3.4-.5z"/><path class="st3" d="M8.8 32.8l-.2-.2c-1.4-1.2-2.7-2.5-3.7-4.1l-.2-.3.3.1c1.1.3 2.3.5 3.4.6h.1v.1c0 1.1.1 2.3.3 3.5v.3zm-3.6-4.2c.9 1.3 2 2.5 3.2 3.6-.1-1.1-.2-2.1-.2-3.1-1-.1-2-.2-3-.5z"/><path class="st0" d="M14 2c-1.4.5-2.7 1.1-3.9 1.9.9.1 1.8.3 2.7.6.3-.9.7-1.7 1.2-2.5zM19.7 1c-.7 0-1.4 0-2 .1.9.7 1.8 1.4 2.7 2.2l.7.6-.7.7c-.6.5-1.1 1.1-1.7 1.8l-.3.3c.4 0 .8-.1 1.3-.1 6.7 0 12.1 5.4 12.1 12.1s-5.4 12.1-12.1 12.1c-2.3 0-4.5-.7-6.3-1.8-.9.1-1.8.2-2.7.2H9.4c0 1.4.2 2.8.4 4.3 2.8 1.9 6.2 3 9.9 3 9.8 0 17.7-7.9 17.7-17.7C37.4 8.9 29.5 1 19.7 1z"/><path class="st0" d="M17.4 5.2c.4-.4.7-.8 1.1-1.2-.8-.7-1.7-1.4-2.6-1.9-.6 1-1.1 1.9-1.5 3 .8.3 1.6.6 2.3 1 .4-.6.6-.8.7-.9zM7.4 10.5c-1.3.2-2.6.6-3.8 1 .5 1.3 1.1 2.5 1.9 3.7.8-.6 1.7-1.1 2.6-1.6-.3-1-.5-2.1-.7-3.1z"/><path class="st3" d="M5.4 15.4l-.1-.1c-.7-1.2-1.4-2.4-1.9-3.7v-.1h.1c1.2-.5 2.5-.8 3.8-1h.1v.1c.1 1 .3 2.1.6 3.1v.1h-.1c-.9.5-1.7 1-2.5 1.6zm-1.6-3.8c.5 1.2 1.1 2.4 1.7 3.4l2.4-1.5c-.2-.9-.4-1.9-.6-2.9-1.2.3-2.4.6-3.5 1z"/><path class="st0" d="M5.1 17.2c-1 .8-1.8 1.6-2.7 2.5.9.8 1.9 1.5 2.9 2.2.5-.8 1-1.7 1.6-2.4-.6-.8-1.2-1.5-1.8-2.3z"/><path class="st3" d="M5.4 22.1l-.1-.1c-1-.7-2-1.4-2.9-2.2l-.1-.1.1-.1c.8-.9 1.7-1.8 2.7-2.6h.1l.1.1c.6.8 1.2 1.6 1.8 2.3l.1.1-.1.1c-.6.8-1.1 1.6-1.6 2.4l-.1.1zm-2.8-2.4c.9.7 1.8 1.4 2.7 2 .4-.8.9-1.5 1.5-2.3-.6-.7-1.2-1.4-1.7-2.1-.9.8-1.7 1.6-2.5 2.4z"/><path class="st0" d="M9.6 25.3c-.1.9-.2 1.8-.2 2.7h2.7c-1-.7-1.8-1.7-2.5-2.7z"/><path class="st3" d="M10.7 28.2H9.3v-.1c0-.9.1-1.9.2-2.8v-.2l.2.1c.7 1 1.5 1.9 2.4 2.7l.2.2H12c-.4.1-.8.1-1.3.1zm-1.2-.3h2.2c-.8-.7-1.5-1.4-2.1-2.3 0 .8 0 1.6-.1 2.3z"/><path class="st0" d="M12.2 6c-1.1-.3-2.2-.5-3.4-.7-.1 1.2-.1 2.3 0 3.5.9-.1 1.8-.2 2.7-.2.2-.9.4-1.7.7-2.6zM13.8 6.5c-.2.7-.4 1.3-.6 2 .8-.5 1.6-.9 2.5-1.2-.6-.3-1.3-.5-1.9-.8z"/><g><path class="st0" d="M2.2 21.1c.2 1.7.7 3.4 1.4 4.9.4-1 .8-2 1.3-3-1-.6-1.9-1.2-2.7-1.9z"/><path class="st3" d="M3.6 26.3l-.1-.3c-.7-1.6-1.2-3.2-1.4-4.9v-.3l.2.2c.8.7 1.7 1.3 2.6 1.9l.1.1h-.1c-.5 1-.9 2-1.2 3l-.1.3zm-1.3-4.9c.2 1.5.6 2.9 1.2 4.3.4-1 .7-1.8 1.2-2.7-.8-.5-1.6-1-2.4-1.6z"/></g><g><path class="st0" d="M7.3 6.1c-1.1 1-2 2.2-2.7 3.5.8-.2 1.8-.4 2.7-.6-.1-1-.1-1.9 0-2.9z"/></g><g><path class="st0" d="M6.2 16.4c.5.7.9 1.3 1.5 1.9 0-1.1.2-2.2.6-3.2-.8.3-1.4.8-2.1 1.3z"/><path class="st3" d="M7.8 18.5l-.2-.2c-.5-.6-1-1.2-1.5-1.9l-.1-.1.1-.1c.7-.5 1.3-.9 2-1.3l.3-.2-.1.3c-.3 1-.5 2.1-.5 3.2v.3zm-1.4-2.1l1.2 1.5c.1-.9.2-1.8.5-2.6-.6.3-1.2.7-1.7 1.1z"/></g><g><path class="st0" d="M6.4 22.5c.7.4 1.5.8 2.3 1.1-.5-1-.8-2.1-.9-3.3-.5.8-1 1.5-1.4 2.2z"/><path class="st3" d="M9 23.9l-.3-.1c-.8-.3-1.6-.7-2.3-1.1l-.1-.1.1-.1c.4-.7.9-1.5 1.4-2.1l.1-.3v.3c.2 1.1.5 2.2.9 3.2l.2.3zm-2.4-1.4c.6.3 1.3.7 1.9.9-.4-.9-.6-1.8-.8-2.7-.4.6-.8 1.2-1.1 1.8z"/></g><g><path class="st0" d="M4.4 16c-.6-.9-1.1-1.8-1.5-2.8-.5 1.6-.8 3.2-.8 4.9.7-.7 1.5-1.4 2.3-2.1z"/><path class="st3" d="M1.9 18.5v-.3c0-1.7.3-3.4.8-5l.2-.3.1.3c.4 1 .9 1.9 1.5 2.8l.1.1-.1.1c-.8.7-1.6 1.4-2.3 2.1l-.3.2zm1-4.9c-.4 1.4-.7 2.8-.7 4.3.7-.7 1.3-1.3 2.1-1.9-.6-.8-1-1.6-1.4-2.4z"/></g></g></svg>